<svg width="41" height="40" viewBox="0 0 41 40" fill="none" xmlns="http://www.w3.org/2000/svg">
<path d="M1.77308 20.3967C0.809967 20.4335 0.295071 20.0912 0.0599632 19.8599C-0.0321541 19.7696 -0.0156593 19.6162 0.0915833 19.5453C1.05745 18.9037 4.31525 16.0224 1.9305 15.5404C1.75039 15.5043 1.7009 15.2668 1.85351 15.1626C2.89637 14.4473 4.1324 13.0556 4.4555 12.682C4.50568 12.6244 4.51874 12.5438 4.49124 12.4723C1.91675 5.80065 4.28638 1.31307 4.60673 0.756113C4.62873 0.717918 4.66242 0.688057 4.70298 0.67139C9.83545 -1.48976 13.989 2.20406 14.6242 2.8124C14.6778 2.86379 14.7534 2.88046 14.8236 2.85823C17.6517 1.95822 20.2853 2.11308 20.4895 2.12697C20.4984 2.12697 20.506 2.12697 20.5149 2.12697C20.7191 2.11308 23.352 1.95822 26.1802 2.85823C26.2503 2.88046 26.3266 2.86379 26.3795 2.8124C27.0147 2.20406 31.169 -1.49045 36.3008 0.67139C36.3413 0.688057 36.375 0.717918 36.397 0.756113C36.7174 1.31376 39.087 5.80065 36.5125 12.4723C36.485 12.5438 36.4981 12.6244 36.5483 12.682C36.872 13.0556 38.1081 14.4487 39.1516 15.1633C39.3015 15.2661 39.2568 15.5036 39.0787 15.539C36.6864 16.0168 39.9367 18.8953 40.908 19.5426C41.0194 19.6169 41.0318 19.7752 40.9348 19.8683C40.6956 20.0988 40.1814 20.4328 39.23 20.3967C39.0884 20.3912 38.9832 20.528 39.0251 20.6655C39.4692 22.1141 41.2085 28.6497 37.9135 32.9185C37.809 33.0539 37.5973 33.0129 37.5526 32.8476C37.4117 32.3303 37.1003 31.4233 36.5366 30.8282C36.4286 30.7143 36.2403 30.7532 36.1894 30.9018C35.8443 31.9205 34.4797 35.2394 30.9201 36.8998C30.7826 36.9637 30.6252 36.8616 30.6266 36.7088C30.6307 36.2699 30.6286 35.4637 30.5668 34.7838C30.5496 34.5921 30.3042 34.5296 30.1976 34.6886C29.5198 35.6991 23.3397 39.336 23.3397 39.336C23.3397 39.336 23.3307 39.3387 23.328 39.3401C20.5032 40.8283 17.6668 39.3373 17.6648 39.336C17.6613 39.3339 11.4846 35.6998 10.8068 34.6893C10.7003 34.5303 10.4548 34.5928 10.4377 34.7845C10.3758 35.4651 10.373 36.2706 10.3778 36.7095C10.3792 36.8623 10.2218 36.9651 10.0843 36.9005C6.52471 35.2407 5.16013 31.9212 4.81503 30.9025C4.76416 30.7532 4.5758 30.715 4.46787 30.8289C3.90416 31.4247 3.59275 32.3317 3.45182 32.8483C3.40645 33.0136 3.19472 33.0539 3.09091 32.9192C-0.204018 28.6503 1.53522 22.1148 1.97931 20.6662C2.02125 20.5294 1.91607 20.3926 1.77446 20.3974L1.77308 20.3967ZM17.7246 35.3164C18.0374 35.6394 18.7936 36.1428 20.4929 36.1977H20.5108C22.2095 36.1428 22.9657 35.6394 23.2785 35.3164C23.3891 35.2019 23.3342 35.0088 23.1809 34.9678C21.8589 34.6136 20.8236 34.2685 20.5644 34.1803C20.5232 34.1664 20.4799 34.1664 20.4386 34.1803C20.1795 34.2685 19.1435 34.613 17.8222 34.9678C17.6689 35.0088 17.6139 35.2019 17.7246 35.3164ZM20.5919 33.2692C20.8724 33.1303 21.731 32.665 22.0369 32.0268C22.0445 32.0108 22.05 31.9935 22.0528 31.9754C22.0803 31.8164 22.2775 30.9594 23.3816 30.5719C23.438 30.5525 23.484 30.5101 23.506 30.4545C23.5961 30.2302 23.7473 29.6316 23.053 29.1886C23.031 29.1747 23.0056 29.1649 22.9794 29.1608C22.7203 29.117 21.2429 28.8767 20.5108 28.9219H20.4929C19.7608 28.8767 18.2835 29.117 18.0243 29.1608C17.9982 29.1649 17.9728 29.1747 17.9508 29.1886C17.2558 29.6316 17.4077 30.2302 17.4977 30.4545C17.5204 30.5101 17.5658 30.5525 17.6222 30.5719C18.7276 30.9594 18.9242 31.8185 18.9517 31.9761C18.9551 31.9942 18.9599 32.0115 18.9682 32.0282C19.2748 32.6657 20.1327 33.1303 20.4125 33.2692C20.4689 33.297 20.5356 33.297 20.5919 33.2692ZM14.629 32.4775C14.629 32.4775 14.9906 34.2511 16.4569 34.5109C16.4789 34.515 16.5016 34.5143 16.5236 34.5109C17.4434 34.3567 20.1231 34.3755 19.3195 33.3115C19.3126 33.3032 19.305 33.2956 19.2982 33.2879C19.1235 33.1233 16.9842 31.1011 16.8584 30.4914C16.8584 30.4914 15.9805 28.0948 20.5026 28.1212C25.0246 28.0948 24.1467 30.4914 24.1467 30.4914C24.0209 31.1011 21.8816 33.1233 21.707 33.2879C21.6994 33.2963 21.6925 33.3039 21.6857 33.3122C20.882 34.3761 23.561 34.3574 24.4815 34.5116C24.5035 34.515 24.5262 34.5157 24.5482 34.5116C26.0145 34.2518 26.3761 32.4782 26.3761 32.4782C27.3213 28.726 24.3048 24.1544 23.3046 22.7746L20.6394 19.7773C20.5624 19.7071 20.4455 19.7071 20.3678 19.7773L17.7019 22.7746C16.7024 24.1544 13.6858 28.7253 14.6304 32.4782L14.629 32.4775ZM3.1411 28.6344C3.19609 28.7705 3.37208 28.8059 3.47313 28.7003C3.55425 28.6156 3.66287 28.5198 3.80173 28.433C3.86429 28.3934 3.90142 28.3226 3.89729 28.2483C3.87254 27.7774 3.85123 26.067 4.73116 24.8503C4.85627 24.6767 5.12919 24.7878 5.10169 25.001C4.88034 26.7038 4.7126 31.1865 8.52518 33.6532C8.65167 33.7352 8.8201 33.6518 8.83453 33.5004C8.92527 32.5719 9.29168 29.892 10.5806 28.3844C10.7202 28.2219 10.9821 28.3476 10.9416 28.5587C10.6989 29.808 10.3696 32.4087 11.7692 32.6581C11.7871 32.6615 11.805 32.6622 11.8229 32.6615C13.7958 32.5414 13.5985 27.4462 13.2287 25.3795C13.1923 25.1739 13.4439 25.0482 13.5841 25.2017C14.0791 25.7447 14.6001 26.3746 15.0463 25.2475C15.4409 24.219 17.1368 22.0607 16.316 21.4974C16.2926 21.4815 16.2651 21.4718 16.237 21.4676C16.0527 21.4405 15.2924 21.3176 14.616 21.0662C14.407 20.9884 14.4585 20.6759 14.6813 20.6697C15.1769 20.6558 15.7991 20.6078 16.2755 20.4738C16.3648 20.4488 16.426 20.3648 16.4239 20.271C16.3827 18.2564 13.934 18.2085 12.8664 17.73C12.7241 17.6661 12.566 17.7779 12.5797 17.9349C12.6072 18.2523 12.6657 18.7182 12.7873 19.1634C12.8458 19.378 12.5777 19.5259 12.434 19.3578C11.6916 18.4904 11.2523 17.3967 11.2702 16.2481C11.2729 16.0585 11.5046 15.9772 11.6318 16.1168C12.9723 17.5856 16.78 16.6807 17.9514 20.0926C18.003 20.2433 18.1969 20.2815 18.3 20.1599C18.707 19.6821 19.5745 18.7634 20.4393 18.4863C20.4785 18.4738 20.5211 18.4738 20.5603 18.4863C21.4251 18.7634 22.2927 19.6828 22.6996 20.1599C22.8028 20.2808 22.9959 20.2433 23.0482 20.0926C24.2189 16.6807 28.0274 17.5856 29.3679 16.1168C29.495 15.9772 29.7267 16.0585 29.7295 16.2481C29.7473 17.396 29.3088 18.4891 28.567 19.3564C28.4233 19.5245 28.1538 19.3773 28.2123 19.1634C28.334 18.7196 28.3924 18.255 28.4199 17.9377C28.4336 17.7793 28.2741 17.6668 28.1305 17.7314C27.0615 18.2092 24.6176 18.2578 24.5757 20.2703C24.5736 20.3648 24.6348 20.4488 24.7242 20.4745C25.2006 20.6085 25.8227 20.6565 26.3184 20.6703C26.5411 20.6766 26.5927 20.9891 26.3837 21.0669C25.7072 21.3183 24.9476 21.4412 24.7634 21.4683C24.7352 21.4724 24.7077 21.4815 24.6836 21.4981C23.8621 22.062 25.5587 24.2197 25.9533 25.2482C26.3995 26.3753 26.9199 25.7454 27.4155 25.2031C27.5558 25.0496 27.8074 25.1753 27.7709 25.3808C27.4011 27.4476 27.2038 32.5428 29.1775 32.6629C29.1953 32.6643 29.2139 32.6629 29.2311 32.6594C30.6307 32.4101 30.3021 29.8101 30.0588 28.5601C30.0175 28.349 30.2801 28.2226 30.4197 28.3858C31.7093 29.8934 32.075 32.5733 32.1658 33.5018C32.1809 33.6532 32.3486 33.7365 32.4751 33.6546C36.2884 31.1879 36.1207 26.7052 35.8986 25.0031C35.8711 24.7899 36.1433 24.6788 36.2691 24.8524C37.1491 26.0684 37.1278 27.7795 37.103 28.2503C37.0989 28.3253 37.1367 28.3962 37.2 28.4358C37.3368 28.5212 37.444 28.6149 37.5244 28.699C37.6275 28.8059 37.8063 28.7705 37.862 28.6316C39.5242 24.4815 37.4791 20.4398 37.3306 20.1641C37.0803 19.7002 36.5661 19.2259 35.988 18.6634C35.834 18.5134 35.9797 18.2557 36.1853 18.312C36.6947 18.4516 37.1546 18.5127 37.5031 18.5384C37.7004 18.553 37.8035 18.3029 37.6537 18.1724C35.8402 16.5946 34.5883 12.8181 31.6825 10.3216C31.5244 10.1854 31.6378 9.92641 31.8434 9.95419C32.4263 10.0334 32.9 10.1584 33.2176 10.2584C33.3867 10.3118 33.5372 10.1347 33.4602 9.97363C31.5505 6.00343 28.0679 5.94995 26.5789 6.1319C26.374 6.1569 26.2634 5.89509 26.4242 5.76384C29.2049 3.50199 33.6699 3.09435 34.4962 3.03671C34.5787 3.03115 34.6578 3.0749 34.6935 3.1506C34.93 3.64644 35.1273 4.50965 35.2641 5.23536C35.3081 5.47078 35.6484 5.45064 35.6649 5.21105C35.6814 4.96591 36.0306 4.94577 36.0746 5.18744C36.1763 5.74231 36.2513 6.27774 36.274 6.44441C36.2788 6.47982 36.2918 6.51316 36.3145 6.54024C36.6266 6.92775 36.7806 6.64788 36.8212 6.55274C36.828 6.53608 36.8329 6.51802 36.8349 6.49996C37.1278 4.26451 36.0217 1.99433 35.7776 1.52627C35.7488 1.4714 35.6972 1.43113 35.6367 1.41862C30.6245 0.374857 27.0684 3.62977 26.4435 4.25131C26.383 4.31173 26.2922 4.32631 26.2152 4.2902C23.1479 2.85407 20.8312 3.18254 20.5321 3.23393C20.5101 3.23741 20.4888 3.23741 20.4668 3.23393C20.1678 3.18324 17.8511 2.85337 14.783 4.2902C14.706 4.32631 14.6153 4.31173 14.5548 4.25131C13.9299 3.62977 10.3737 0.375551 5.36155 1.41862C5.30106 1.43113 5.2495 1.47071 5.22063 1.52627C4.97658 1.99433 3.87048 4.26451 4.16333 6.49996C4.16539 6.51802 4.1702 6.53538 4.17708 6.55274C4.21695 6.64858 4.37162 6.92775 4.68372 6.54094C4.70572 6.51316 4.71947 6.47982 4.72429 6.44441C4.74766 6.27357 4.82534 5.7187 4.93052 5.15202C4.97452 4.9166 5.31549 4.93605 5.3313 5.17563C5.33199 5.18744 5.33268 5.19994 5.33405 5.21175C5.35055 5.45064 5.69084 5.47147 5.73483 5.23605C5.87095 4.51035 6.06824 3.64714 6.30541 3.15129C6.34116 3.07629 6.42022 3.03185 6.50271 3.0374C7.32971 3.09435 11.794 3.50269 14.5747 5.76453C14.7356 5.89509 14.6249 6.1576 14.42 6.1326C12.9317 5.95065 9.44911 6.00412 7.53869 9.97433C7.46101 10.1354 7.61156 10.3125 7.78136 10.2591C8.09827 10.1591 8.57055 10.0347 9.15213 9.95558C9.35699 9.9278 9.47385 10.1868 9.31643 10.3223C6.40509 12.823 5.15394 16.6085 3.33564 18.1814C3.18784 18.3092 3.29028 18.553 3.48413 18.5398C3.83405 18.5148 4.29945 18.4536 4.81503 18.3127C5.02058 18.2564 5.16494 18.5148 5.01164 18.6641C4.43349 19.2273 3.9131 19.7356 3.66906 20.1648C3.51438 20.4377 1.47404 24.4843 3.13972 28.6365L3.1411 28.6344Z" fill="white"/>
</svg>
